<svg width="3250" height="611" viewBox="0 0 3250 611" fill="none" xmlns="http://www.w3.org/2000/svg">
<g clip-path="url(#clip0_31654_2586)">
<path d="M79.6417 191.253L160.43 190.674L159.87 107.602L215.822 107.201L217.272 322.446L161.32 322.847L160.722 234.066L79.934 234.644L80.5321 323.426L24.5799 323.827L23.1298 108.582L79.082 108.181L79.6417 191.253ZM310.469 214.151C310.527 222.715 312.198 230.601 315.482 237.81C318.766 245.019 323.185 251.268 328.74 256.557C334.295 261.846 340.699 265.988 347.952 268.981C355.393 271.782 363.206 273.154 371.389 273.095C379.573 273.037 387.271 271.554 394.483 268.647C401.885 265.549 408.327 261.316 413.811 255.948C419.484 250.578 423.914 244.266 427.101 237.01C430.287 229.755 431.852 221.846 431.794 213.282C431.736 204.717 430.066 196.831 426.782 189.622C423.498 182.413 418.983 176.165 413.238 170.877C407.683 165.588 401.184 161.543 393.743 158.741C386.49 155.748 378.772 154.281 370.589 154.339C362.406 154.398 354.613 155.976 347.211 159.074C339.999 161.981 333.651 166.118 328.167 171.487C322.684 176.855 318.349 183.167 315.163 190.422C311.976 197.677 310.412 205.587 310.469 214.151ZM251.948 214.57C251.84 198.584 254.69 183.718 260.497 169.973C266.304 156.038 274.406 143.894 284.804 133.542C295.202 123.19 307.613 115.108 322.039 109.295C336.653 103.29 352.715 100.225 370.224 100.1C387.542 99.9756 403.548 102.811 418.242 108.606C432.935 114.21 445.549 122.113 456.086 132.315C466.813 142.516 475.173 154.541 481.166 168.392C487.158 182.052 490.208 196.876 490.316 212.862C490.423 228.849 487.574 243.809 481.768 257.745C475.961 271.49 467.763 283.539 457.174 293.892C446.776 304.244 434.27 312.422 419.656 318.427C405.04 324.241 389.073 327.211 371.754 327.335C354.246 327.46 338.145 324.721 323.452 319.116C308.949 313.32 296.429 305.321 285.892 295.119C275.356 284.917 267.091 272.986 261.099 259.326C255.106 245.475 252.056 230.556 251.948 214.57ZM580.885 104.586L581.674 221.629C581.716 227.909 581.95 234.378 582.376 241.037C582.99 247.503 584.457 253.393 586.777 258.705C589.287 264.016 593.123 268.366 598.284 271.755C603.444 274.954 610.687 276.519 620.013 276.453C629.338 276.386 636.464 274.717 641.39 271.446C646.506 267.984 650.282 263.579 652.72 258.233C655.159 252.886 656.546 246.976 656.883 240.503C657.409 233.838 657.651 227.365 657.609 221.085L656.82 104.042L712.487 103.643L713.328 228.394C713.553 261.889 706.01 286.399 690.699 301.925C675.578 317.45 652.126 325.326 620.343 325.554C588.561 325.781 564.91 318.243 549.391 302.938C533.872 287.633 525.999 263.233 525.774 229.737L524.933 104.986L580.885 104.586ZM876.27 157.568C870.147 152.663 864.032 149.091 857.927 146.851C851.82 144.42 845.912 143.226 840.203 143.267C832.971 143.318 827.083 145.073 822.538 148.532C817.994 151.99 815.74 156.479 815.777 161.998C815.803 165.804 816.966 168.936 819.266 171.394C821.567 173.852 824.531 176.019 828.16 177.896C831.978 179.582 836.175 181.075 840.752 182.374C845.518 183.672 850.191 185.066 854.769 186.556C873.08 192.515 886.457 200.603 894.9 210.82C903.532 220.845 907.903 234.042 908.013 250.409C908.088 261.447 906.252 271.452 902.506 280.424C898.95 289.395 893.578 297.141 886.39 303.664C879.39 309.994 870.669 314.91 860.225 318.411C849.972 322.1 838.28 323.992 825.148 324.086C797.933 324.281 772.662 316.374 749.335 300.363L773.011 255.087C781.435 262.449 789.75 267.909 797.958 271.466C806.166 275.024 814.267 276.774 822.26 276.717C831.395 276.651 838.137 274.509 842.486 270.291C847.025 266.071 849.277 261.297 849.241 255.968C849.219 252.733 848.63 249.978 847.472 247.702C846.314 245.236 844.396 243.061 841.719 241.177C839.04 239.103 835.507 237.225 831.118 235.543C826.919 233.86 821.768 231.994 815.664 229.944C808.417 227.712 801.263 225.289 794.204 222.675C787.333 219.87 781.123 216.203 775.573 211.675C770.214 207.146 765.798 201.468 762.326 194.641C759.043 187.622 757.366 178.784 757.294 168.127C757.222 157.469 758.871 147.846 762.238 139.257C765.795 130.477 770.694 123.019 776.933 116.884C783.361 110.558 791.131 105.649 800.243 102.158C809.546 98.665 819.906 96.8779 831.325 96.7961C841.983 96.7197 853.126 98.1625 864.756 101.124C876.384 103.896 887.546 108.098 898.242 113.731L876.27 157.568ZM1065.05 148.507L998.538 148.984L998.78 184.953L1061.58 184.503L1061.9 231.891L999.099 232.341L999.349 269.453L1065.86 268.976L1066.18 316.364L943.716 317.242L942.266 101.996L1064.73 101.119L1065.05 148.507ZM1161.62 189.211L1229.25 99.9403L1298.34 99.4454L1213.67 201.97L1307.78 314.633L1235.27 315.153L1161.85 222.325L1162.48 315.674L1106.52 316.075L1105.07 100.83L1161.03 100.429L1161.62 189.211ZM1453.95 145.721L1387.44 146.198L1387.68 182.167L1450.48 181.717L1450.8 229.105L1388 229.555L1388.25 266.666L1454.76 266.19L1455.08 313.578L1332.61 314.455L1331.16 99.2102L1453.63 98.3328L1453.95 145.721ZM1616.76 144.555L1550.24 145.031L1550.48 181L1613.29 180.551L1613.61 227.939L1550.8 228.389L1551.05 265.5L1617.57 265.023L1617.89 312.412L1495.42 313.289L1493.97 98.0438L1616.44 97.1664L1616.76 144.555ZM1713.4 195.25L1731.95 195.117C1752.51 194.969 1762.72 185.951 1762.6 168.061C1762.48 150.172 1752.14 141.301 1731.59 141.448L1713.03 141.581L1713.4 195.25ZM1714.18 311.722L1658.23 312.123L1656.78 96.8774L1745.85 96.2392C1770.01 96.0661 1788.52 102.214 1801.35 114.684C1814.38 127.152 1820.97 144.804 1821.12 167.642C1821.28 190.48 1814.93 208.225 1802.07 220.879C1789.4 233.531 1770.98 239.944 1746.81 240.117L1713.7 240.354L1714.18 311.722ZM1906.2 95.0904L1907.65 310.336L1851.7 310.736L1850.25 95.4912L1906.2 95.0904ZM1952.62 310.013L1951.17 94.7682L2007.12 94.3673L2111.35 225.229L2110.46 93.627L2166.13 93.2281L2167.58 308.473L2111.91 308.872L2007.69 178.01L2008.57 309.613L1952.62 310.013ZM2320.58 186.903L2431.63 186.107C2431.7 197.526 2431.3 207.901 2430.41 217.234C2429.52 226.566 2427.68 235.239 2424.88 243.252C2420.95 254.51 2415.6 264.54 2408.81 273.343C2402.01 281.957 2393.97 289.247 2384.69 295.213C2375.59 300.988 2365.53 305.437 2354.52 308.562C2343.5 311.686 2331.9 313.291 2319.72 313.379C2302.97 313.499 2287.63 310.849 2273.7 305.429C2259.96 300.008 2248.11 292.385 2238.15 282.56C2228.18 272.544 2220.4 260.609 2214.78 246.756C2209.17 232.712 2206.31 217.221 2206.19 200.283C2206.08 183.536 2208.64 168.196 2213.87 154.265C2219.3 140.143 2226.93 128.098 2236.76 118.13C2246.78 108.162 2258.81 100.367 2272.85 94.7474C2286.9 89.1274 2302.58 86.2553 2319.9 86.1313C2342.36 85.9704 2362.09 90.6822 2379.09 100.267C2396.09 109.852 2409.61 124.79 2419.65 145.083L2366.7 167.445C2361.67 155.681 2355.14 147.258 2347.11 142.177C2339.28 137.094 2330.31 134.589 2320.23 134.661C2311.85 134.721 2304.25 136.394 2297.42 139.678C2290.59 142.772 2284.72 147.287 2279.81 153.222C2275.09 158.965 2271.34 165.939 2268.54 174.143C2265.93 182.346 2264.66 191.49 2264.72 201.577C2264.79 210.712 2265.98 219.173 2268.32 226.959C2270.85 234.745 2274.51 241.475 2279.31 247.15C2284.1 252.825 2290.03 257.256 2297.09 260.44C2304.16 263.435 2312.35 264.899 2321.68 264.832C2327.2 264.793 2332.52 264.183 2337.65 263.005C2342.78 261.636 2347.33 259.605 2351.31 256.912C2355.48 254.027 2358.88 250.386 2361.52 245.99C2364.15 241.594 2365.92 236.252 2366.83 229.965L2320.87 230.294L2320.58 186.903ZM2619.99 188.754L2638.54 188.621C2659.1 188.474 2669.31 179.456 2669.19 161.566C2669.07 143.677 2658.74 134.806 2638.18 134.953L2619.63 135.086L2619.99 188.754ZM2620.77 305.227L2564.82 305.627L2563.37 90.3821L2652.44 89.744C2676.61 89.5708 2695.11 95.719 2707.94 108.188C2720.97 120.656 2727.56 138.309 2727.71 161.147C2727.87 183.985 2721.52 201.73 2708.66 214.384C2695.99 227.036 2677.58 233.448 2653.41 233.621L2620.29 233.859L2620.77 305.227ZM2813.44 184.799L2824.01 184.723C2835.04 184.644 2843.5 182.3 2849.37 177.69C2855.24 173.08 2858.14 166.493 2858.08 157.929C2858.03 149.365 2855.03 142.82 2849.1 138.295C2843.17 133.77 2834.69 131.547 2823.65 131.626L2813.09 131.701L2813.44 184.799ZM2937.28 302.959L2867.63 303.458L2813.69 221.054L2814.25 303.84L2758.29 304.241L2756.84 88.996L2843.91 88.3722C2855.9 88.2863 2866.38 90.0193 2875.35 93.5712C2884.32 96.9327 2891.68 101.638 2897.43 107.687C2903.37 113.735 2907.79 120.745 2910.7 128.718C2913.8 136.689 2915.38 145.243 2915.44 154.378C2915.55 170.745 2911.64 184.095 2903.72 194.43C2895.99 204.572 2884.42 211.507 2869.03 215.233L2937.28 302.959ZM3004.87 194.847C3004.93 203.411 3006.6 211.297 3009.89 218.506C3013.17 225.715 3017.59 231.964 3023.15 237.253C3028.7 242.542 3035.1 246.684 3042.36 249.677C3049.8 252.478 3057.61 253.85 3065.79 253.791C3073.98 253.733 3081.68 252.25 3088.89 249.343C3096.29 246.245 3102.73 242.012 3108.22 236.644C3113.89 231.274 3118.32 224.962 3121.51 217.706C3124.69 210.451 3126.26 202.542 3126.2 193.978C3126.14 185.413 3124.47 177.527 3121.19 170.318C3117.9 163.109 3113.39 156.861 3107.64 151.573C3102.09 146.284 3095.59 142.239 3088.15 139.437C3080.9 136.444 3073.18 134.977 3064.99 135.035C3056.81 135.094 3049.02 136.672 3041.62 139.77C3034.4 142.677 3028.06 146.814 3022.57 152.183C3017.09 157.551 3012.75 163.863 3009.57 171.118C3006.38 178.373 3004.82 186.283 3004.87 194.847ZM2946.35 195.266C2946.25 179.28 2949.1 164.414 2954.9 150.669C2960.71 136.734 2968.81 124.59 2979.21 114.238C2989.61 103.886 3002.02 95.804 3016.44 89.9909C3031.06 83.9862 3047.12 80.9211 3064.63 80.7957C3081.95 80.6716 3097.95 83.5069 3112.65 89.3017C3127.34 94.9061 3139.95 102.809 3150.49 113.011C3161.22 123.212 3169.58 135.238 3175.57 149.088C3181.56 162.749 3184.61 177.572 3184.72 193.558C3184.83 209.545 3181.98 224.505 3176.17 238.441C3170.37 252.186 3162.17 264.235 3151.58 274.588C3141.18 284.94 3128.68 293.118 3114.06 299.123C3099.45 304.937 3083.48 307.907 3066.16 308.031C3048.65 308.156 3032.55 305.417 3017.86 299.812C3003.35 294.016 2990.83 286.017 2980.3 275.815C2969.76 265.613 2961.5 253.682 2955.5 240.022C2949.51 226.171 2946.46 211.252 2946.35 195.266Z" fill="white"/>
<path d="M457.135 494.191C466.535 496.191 473.569 499.391 478.235 503.791C484.702 509.924 487.935 517.424 487.935 526.291C487.935 533.024 485.802 539.491 481.535 545.691C477.269 551.824 471.402 556.324 463.935 559.191C456.535 561.991 445.202 563.391 429.935 563.391H365.936V559.691H371.036C376.702 559.691 380.769 557.891 383.236 554.291C384.769 551.958 385.536 546.991 385.536 539.391V451.791C385.536 443.391 384.569 438.091 382.636 435.891C380.036 432.958 376.169 431.491 371.036 431.491H365.936V427.791H424.535C435.469 427.791 444.235 428.591 450.835 430.191C460.835 432.591 468.469 436.858 473.735 442.991C479.002 449.058 481.635 456.058 481.635 463.991C481.635 470.791 479.569 476.891 475.435 482.291C471.302 487.625 465.202 491.591 457.135 494.191ZM404.735 488.791C407.202 489.258 410.002 489.624 413.135 489.891C416.335 490.091 419.835 490.191 423.635 490.191C433.369 490.191 440.669 489.158 445.535 487.091C450.469 484.958 454.235 481.725 456.835 477.391C459.435 473.058 460.735 468.325 460.735 463.191C460.735 455.258 457.502 448.491 451.035 442.891C444.569 437.291 435.135 434.491 422.735 434.491C416.069 434.491 410.069 435.225 404.735 436.691V488.791ZM404.735 553.591C412.469 555.391 420.102 556.291 427.635 556.291C439.702 556.291 448.902 553.591 455.235 548.191C461.569 542.724 464.735 535.991 464.735 527.991C464.735 522.724 463.302 517.658 460.435 512.791C457.569 507.924 452.902 504.091 446.435 501.291C439.969 498.491 431.969 497.091 422.435 497.091C418.302 497.091 414.769 497.158 411.835 497.291C408.902 497.424 406.535 497.658 404.735 497.991V553.591ZM596.735 427.791H644.035V431.491H641.435C639.701 431.491 637.168 432.258 633.835 433.791C630.501 435.325 627.468 437.525 624.735 440.391C622.001 443.258 618.635 447.925 614.635 454.391L581.935 505.891V539.891C581.935 548.224 582.868 553.424 584.735 555.491C587.268 558.291 591.268 559.691 596.735 559.691H601.135V563.391H543.535V559.691H548.335C554.068 559.691 558.135 557.958 560.535 554.491C562.002 552.358 562.735 547.491 562.735 539.891V507.791L525.535 450.991C521.135 444.325 518.135 440.158 516.535 438.491C515.002 436.825 511.768 434.825 506.835 432.491C505.502 431.825 503.568 431.491 501.035 431.491V427.791H559.035V431.491H556.035C552.902 431.491 550.002 432.225 547.335 433.691C544.735 435.158 543.435 437.358 543.435 440.291C543.435 442.691 545.468 447.025 549.535 453.291L577.835 496.991L604.435 455.191C608.435 448.925 610.435 444.258 610.435 441.191C610.435 439.325 609.935 437.658 608.935 436.191C608.001 434.725 606.635 433.591 604.835 432.791C603.035 431.925 600.335 431.491 596.735 431.491V427.791ZM836.734 563.391H800.534L754.634 499.991C751.234 500.124 748.467 500.191 746.334 500.191C745.467 500.191 744.534 500.191 743.534 500.191C742.534 500.124 741.501 500.058 740.434 499.991V539.391C740.434 547.924 741.367 553.224 743.234 555.291C745.767 558.224 749.567 559.691 754.634 559.691H759.934V563.391H701.834V559.691H706.934C712.668 559.691 716.768 557.824 719.234 554.091C720.634 552.024 721.334 547.124 721.334 539.391V451.791C721.334 443.258 720.401 437.958 718.534 435.891C715.934 432.958 712.068 431.491 706.934 431.491H701.834V427.791H751.234C765.634 427.791 776.234 428.858 783.034 430.991C789.901 433.058 795.701 436.925 800.434 442.591C805.234 448.191 807.634 454.891 807.634 462.691C807.634 471.025 804.901 478.258 799.434 484.391C794.034 490.524 785.634 494.858 774.234 497.391L802.234 536.291C808.634 545.224 814.134 551.158 818.734 554.091C823.334 557.024 829.334 558.891 836.734 559.691V563.391ZM740.434 493.691C741.701 493.691 742.801 493.724 743.734 493.791C744.667 493.791 745.434 493.791 746.034 493.791C758.967 493.791 768.701 490.991 775.234 485.391C781.834 479.791 785.134 472.658 785.134 463.991C785.134 455.525 782.467 448.658 777.134 443.391C771.867 438.058 764.867 435.391 756.134 435.391C752.267 435.391 747.034 436.025 740.434 437.291V493.691ZM877.734 435.191V488.791H907.533C915.267 488.791 920.433 487.625 923.033 485.291C926.5 482.225 928.433 476.825 928.833 469.091H932.533V516.291H928.833C927.9 509.691 926.967 505.458 926.033 503.591C924.833 501.258 922.867 499.424 920.133 498.091C917.4 496.758 913.2 496.091 907.533 496.091H877.734V540.791C877.734 546.791 878 550.458 878.534 551.791C879.067 553.058 880 554.091 881.334 554.891C882.667 555.624 885.2 555.991 888.934 555.991H911.933C919.6 555.991 925.167 555.458 928.633 554.391C932.1 553.324 935.433 551.224 938.633 548.091C942.767 543.958 947 537.724 951.333 529.391H955.333L943.633 563.391H839.134V559.691H843.934C847.134 559.691 850.167 558.924 853.034 557.391C855.167 556.324 856.6 554.724 857.334 552.591C858.134 550.458 858.534 546.091 858.534 539.491V451.391C858.534 442.791 857.667 437.491 855.934 435.491C853.534 432.825 849.534 431.491 843.934 431.491H839.134V427.791H943.633L945.133 457.491H941.233C939.833 450.358 938.267 445.458 936.533 442.791C934.867 440.125 932.367 438.091 929.033 436.691C926.367 435.691 921.667 435.191 914.933 435.191H877.734ZM1105.53 427.791V431.491C1100.73 432.358 1097.1 433.891 1094.63 436.091C1091.1 439.358 1087.97 444.358 1085.23 451.091L1037.93 566.491H1034.23L983.433 449.591C980.833 443.591 979 439.925 977.933 438.591C976.267 436.525 974.2 434.925 971.733 433.791C969.333 432.591 966.067 431.825 961.933 431.491V427.791H1017.33V431.491C1011.07 432.091 1007 433.158 1005.13 434.691C1003.27 436.225 1002.33 438.191 1002.33 440.591C1002.33 443.925 1003.87 449.125 1006.93 456.191L1041.43 535.691L1073.43 457.191C1076.57 449.458 1078.13 444.091 1078.13 441.091C1078.13 439.158 1077.17 437.325 1075.23 435.591C1073.3 433.791 1070.03 432.525 1065.43 431.791C1065.1 431.725 1064.53 431.625 1063.73 431.491V427.791H1105.53ZM1171.33 559.691V563.391H1113.23V559.691H1118.03C1123.63 559.691 1127.7 558.058 1130.23 554.791C1131.83 552.658 1132.63 547.524 1132.63 539.391V451.791C1132.63 444.925 1132.2 440.391 1131.33 438.191C1130.67 436.525 1129.3 435.091 1127.23 433.891C1124.3 432.291 1121.23 431.491 1118.03 431.491H1113.23V427.791H1171.33V431.491H1166.43C1160.9 431.491 1156.87 433.125 1154.33 436.391C1152.67 438.525 1151.83 443.658 1151.83 451.791V539.391C1151.83 546.258 1152.27 550.791 1153.13 552.991C1153.8 554.658 1155.2 556.091 1157.33 557.291C1160.2 558.891 1163.23 559.691 1166.43 559.691H1171.33ZM1321.73 427.791V431.491C1316.93 432.358 1313.3 433.891 1310.83 436.091C1307.3 439.358 1304.17 444.358 1301.43 451.091L1254.13 566.491H1250.43L1199.63 449.591C1197.03 443.591 1195.2 439.925 1194.13 438.591C1192.47 436.525 1190.4 434.925 1187.93 433.791C1185.53 432.591 1182.27 431.825 1178.13 431.491V427.791H1233.53V431.491C1227.27 432.091 1223.2 433.158 1221.33 434.691C1219.47 436.225 1218.53 438.191 1218.53 440.591C1218.53 443.925 1220.07 449.125 1223.13 456.191L1257.63 535.691L1289.63 457.191C1292.77 449.458 1294.33 444.091 1294.33 441.091C1294.33 439.158 1293.37 437.325 1291.43 435.591C1289.5 433.791 1286.23 432.525 1281.63 431.791C1281.3 431.725 1280.73 431.625 1279.93 431.491V427.791H1321.73ZM1418.03 517.991H1365.53L1356.33 539.391C1354.07 544.658 1352.93 548.591 1352.93 551.191C1352.93 553.258 1353.9 555.091 1355.83 556.691C1357.83 558.224 1362.1 559.224 1368.63 559.691V563.391H1325.93V559.691C1331.6 558.691 1335.27 557.391 1336.93 555.791C1340.33 552.591 1344.1 546.091 1348.23 536.291L1395.93 424.691H1399.43L1446.63 537.491C1450.43 546.558 1453.86 552.458 1456.93 555.191C1460.06 557.858 1464.4 559.358 1469.93 559.691V563.391H1416.43V559.691C1421.83 559.424 1425.46 558.524 1427.33 556.991C1429.26 555.458 1430.23 553.591 1430.23 551.391C1430.23 548.458 1428.9 543.824 1426.23 537.491L1418.03 517.991ZM1415.23 510.591L1392.23 455.791L1368.63 510.591H1415.23ZM1589.73 525.891L1593.03 526.591L1581.43 563.391H1476.43V559.691H1481.53C1487.26 559.691 1491.36 557.824 1493.83 554.091C1495.23 551.958 1495.93 547.024 1495.93 539.291V451.791C1495.93 443.325 1495 438.025 1493.13 435.891C1490.53 432.958 1486.66 431.491 1481.53 431.491H1476.43V427.791H1537.83V431.491C1530.63 431.425 1525.56 432.091 1522.63 433.491C1519.76 434.891 1517.8 436.658 1516.73 438.791C1515.66 440.925 1515.13 446.025 1515.13 454.091V539.291C1515.13 544.824 1515.66 548.624 1516.73 550.691C1517.53 552.091 1518.76 553.124 1520.43 553.791C1522.1 554.458 1527.3 554.791 1536.03 554.791H1545.93C1556.33 554.791 1563.63 554.024 1567.83 552.491C1572.03 550.958 1575.86 548.258 1579.33 544.391C1582.8 540.458 1586.26 534.291 1589.73 525.891ZM1646.03 427.791H1682.83L1765.73 529.491V451.291C1765.73 442.958 1764.8 437.758 1762.93 435.691C1760.46 432.891 1756.56 431.491 1751.23 431.491H1746.53V427.791H1793.73V431.491H1788.93C1783.2 431.491 1779.13 433.225 1776.73 436.691C1775.26 438.825 1774.53 443.691 1774.53 451.291V565.591H1770.93L1681.53 456.391V539.891C1681.53 548.224 1682.43 553.424 1684.23 555.491C1686.76 558.291 1690.66 559.691 1695.93 559.691H1700.73V563.391H1653.53V559.691H1658.23C1664.03 559.691 1668.13 557.958 1670.53 554.491C1672 552.358 1672.73 547.491 1672.73 539.891V445.591C1668.8 440.991 1665.8 437.958 1663.73 436.491C1661.73 435.025 1658.76 433.658 1654.83 432.391C1652.9 431.791 1649.96 431.491 1646.03 431.491V427.791ZM1839.53 435.191V488.791H1869.33C1877.06 488.791 1882.23 487.625 1884.83 485.291C1888.3 482.225 1890.23 476.825 1890.63 469.091H1894.33V516.291H1890.63C1889.7 509.691 1888.76 505.458 1887.83 503.591C1886.63 501.258 1884.66 499.424 1881.93 498.091C1879.2 496.758 1875 496.091 1869.33 496.091H1839.53V540.791C1839.53 546.791 1839.8 550.458 1840.33 551.791C1840.86 553.058 1841.8 554.091 1843.13 554.891C1844.46 555.624 1847 555.991 1850.73 555.991H1873.73C1881.4 555.991 1886.96 555.458 1890.43 554.391C1893.9 553.324 1897.23 551.224 1900.43 548.091C1904.56 543.958 1908.8 537.724 1913.13 529.391H1917.13L1905.43 563.391H1800.93V559.691H1805.73C1808.93 559.691 1811.96 558.924 1814.83 557.391C1816.96 556.324 1818.4 554.724 1819.13 552.591C1819.93 550.458 1820.33 546.091 1820.33 539.491V451.391C1820.33 442.791 1819.46 437.491 1817.73 435.491C1815.33 432.825 1811.33 431.491 1805.73 431.491H1800.93V427.791H1905.43L1906.93 457.491H1903.03C1901.63 450.358 1900.06 445.458 1898.33 442.791C1896.66 440.125 1894.16 438.091 1890.83 436.691C1888.16 435.691 1883.46 435.191 1876.73 435.191H1839.53ZM2113.63 427.791V431.491C2110.1 431.491 2107.23 432.125 2105.03 433.391C2102.83 434.658 2100.73 437.025 2098.73 440.491C2097.4 442.825 2095.3 448.391 2092.43 457.191L2054.63 566.491H2050.63L2019.73 479.791L1989.03 566.491H1985.43L1945.13 453.891C1942.13 445.491 1940.23 440.525 1939.43 438.991C1938.1 436.458 1936.26 434.591 1933.93 433.391C1931.66 432.125 1928.56 431.491 1924.63 431.491V427.791H1974.83V431.491H1972.43C1968.9 431.491 1966.2 432.291 1964.33 433.891C1962.46 435.491 1961.53 437.425 1961.53 439.691C1961.53 442.025 1963 447.391 1965.93 455.791L1992.63 531.891L2015.13 467.191L2011.13 455.791L2007.93 446.691C2006.53 443.358 2004.96 440.425 2003.23 437.891C2002.36 436.625 2001.3 435.558 2000.03 434.691C1998.36 433.491 1996.7 432.625 1995.03 432.091C1993.76 431.691 1991.76 431.491 1989.03 431.491V427.791H2041.83V431.491H2038.23C2034.5 431.491 2031.76 432.291 2030.03 433.891C2028.3 435.491 2027.43 437.658 2027.43 440.391C2027.43 443.791 2028.93 449.725 2031.93 458.191L2057.93 531.891L2083.73 457.191C2086.66 448.925 2088.13 443.191 2088.13 439.991C2088.13 438.458 2087.63 437.025 2086.63 435.691C2085.7 434.358 2084.5 433.425 2083.03 432.891C2080.5 431.958 2077.2 431.491 2073.13 431.491V427.791H2113.63ZM2264.13 427.791H2311.43V431.491H2308.83C2307.09 431.491 2304.56 432.258 2301.23 433.791C2297.89 435.325 2294.86 437.525 2292.13 440.391C2289.39 443.258 2286.03 447.925 2282.03 454.391L2249.33 505.891V539.891C2249.33 548.224 2250.26 553.424 2252.13 555.491C2254.66 558.291 2258.66 559.691 2264.13 559.691H2268.53V563.391H2210.93V559.691H2215.73C2221.46 559.691 2225.53 557.958 2227.93 554.491C2229.39 552.358 2230.13 547.491 2230.13 539.891V507.791L2192.93 450.991C2188.53 444.325 2185.53 440.158 2183.93 438.491C2182.4 436.825 2179.16 434.825 2174.23 432.491C2172.9 431.825 2170.96 431.491 2168.43 431.491V427.791H2226.43V431.491H2223.43C2220.3 431.491 2217.4 432.225 2214.73 433.691C2212.13 435.158 2210.83 437.358 2210.83 440.291C2210.83 442.691 2212.86 447.025 2216.93 453.291L2245.23 496.991L2271.83 455.191C2275.83 448.925 2277.83 444.258 2277.83 441.191C2277.83 439.325 2277.33 437.658 2276.33 436.191C2275.39 434.725 2274.03 433.591 2272.23 432.791C2270.43 431.925 2267.73 431.491 2264.13 431.491V427.791ZM2389.43 424.691C2407.03 424.691 2422.26 431.391 2435.13 444.791C2448.06 458.125 2454.53 474.791 2454.53 494.791C2454.53 515.391 2448.03 532.491 2435.03 546.091C2422.03 559.691 2406.29 566.491 2387.83 566.491C2369.16 566.491 2353.46 559.858 2340.73 546.591C2328.06 533.324 2321.73 516.158 2321.73 495.091C2321.73 473.558 2329.06 455.991 2343.73 442.391C2356.46 430.591 2371.69 424.691 2389.43 424.691ZM2387.53 431.991C2375.39 431.991 2365.66 436.491 2358.33 445.491C2349.19 456.691 2344.63 473.091 2344.63 494.691C2344.63 516.824 2349.36 533.858 2358.83 545.791C2366.09 554.858 2375.69 559.391 2387.63 559.391C2400.36 559.391 2410.86 554.424 2419.13 544.491C2427.46 534.558 2431.63 518.891 2431.63 497.491C2431.63 474.291 2427.06 456.991 2417.93 445.591C2410.59 436.525 2400.46 431.991 2387.53 431.991ZM2600.93 563.391H2564.73L2518.83 499.991C2515.43 500.124 2512.66 500.191 2510.53 500.191C2509.66 500.191 2508.73 500.191 2507.73 500.191C2506.73 500.124 2505.69 500.058 2504.63 499.991V539.391C2504.63 547.924 2505.56 553.224 2507.43 555.291C2509.96 558.224 2513.76 559.691 2518.83 559.691H2524.13V563.391H2466.03V559.691H2471.13C2476.86 559.691 2480.96 557.824 2483.43 554.091C2484.83 552.024 2485.53 547.124 2485.53 539.391V451.791C2485.53 443.258 2484.59 437.958 2482.73 435.891C2480.13 432.958 2476.26 431.491 2471.13 431.491H2466.03V427.791H2515.43C2529.83 427.791 2540.43 428.858 2547.23 430.991C2554.09 433.058 2559.89 436.925 2564.63 442.591C2569.43 448.191 2571.83 454.891 2571.83 462.691C2571.83 471.025 2569.09 478.258 2563.63 484.391C2558.23 490.524 2549.83 494.858 2538.43 497.391L2566.43 536.291C2572.83 545.224 2578.33 551.158 2582.93 554.091C2587.53 557.024 2593.53 558.891 2600.93 559.691V563.391ZM2504.63 493.691C2505.89 493.691 2506.99 493.724 2507.93 493.791C2508.86 493.791 2509.63 493.791 2510.23 493.791C2523.16 493.791 2532.89 490.991 2539.43 485.391C2546.03 479.791 2549.33 472.658 2549.33 463.991C2549.33 455.525 2546.66 448.658 2541.33 443.391C2536.06 438.058 2529.06 435.391 2520.33 435.391C2516.46 435.391 2511.23 436.025 2504.63 437.291V493.691ZM2660.33 488.191L2710.33 537.891C2718.53 546.091 2725.53 551.691 2731.33 554.691C2737.13 557.624 2742.93 559.291 2748.73 559.691V563.391H2684.23V559.691C2688.09 559.691 2690.86 559.058 2692.53 557.791C2694.26 556.458 2695.13 554.991 2695.13 553.391C2695.13 551.791 2694.79 550.358 2694.13 549.091C2693.53 547.824 2691.46 545.458 2687.93 541.991L2641.13 495.691V539.391C2641.13 546.258 2641.56 550.791 2642.43 552.991C2643.09 554.658 2644.49 556.091 2646.63 557.291C2649.49 558.891 2652.53 559.691 2655.73 559.691H2660.33V563.391H2602.53V559.691H2607.33C2612.93 559.691 2616.99 558.058 2619.53 554.791C2621.13 552.658 2621.93 547.524 2621.93 539.391V451.791C2621.93 444.925 2621.49 440.358 2620.63 438.091C2619.96 436.491 2618.59 435.091 2616.53 433.891C2613.59 432.291 2610.53 431.491 2607.33 431.491H2602.53V427.791H2660.33V431.491H2655.73C2652.59 431.491 2649.56 432.258 2646.63 433.791C2644.56 434.858 2643.13 436.458 2642.33 438.591C2641.53 440.725 2641.13 445.125 2641.13 451.791V493.291C2642.46 492.024 2647.03 487.791 2654.83 480.591C2674.63 462.458 2686.59 450.358 2690.73 444.291C2692.53 441.625 2693.43 439.291 2693.43 437.291C2693.43 435.758 2692.73 434.425 2691.33 433.291C2689.93 432.091 2687.56 431.491 2684.23 431.491H2681.13V427.791H2730.93V431.491C2727.99 431.558 2725.33 431.958 2722.93 432.691C2720.53 433.425 2717.59 434.858 2714.13 436.991C2710.66 439.058 2706.39 442.425 2701.33 447.091C2699.86 448.425 2693.09 455.258 2681.03 467.591L2660.33 488.191Z" fill="white"/>
</g>
<defs>
<clipPath id="clip0_31654_2586">
<rect width="3250" height="611" fill="white"/>
</clipPath>
</defs>
</svg>
