<svg height="24" viewBox="0 0 24 24" width="24" xmlns="http://www.w3.org/2000/svg"><path d="m16.9499909 19c-.2316351 1.1411202-1.2405119 2-2.4499909 2h-9c-1.38071187 0-2.5-1.1192881-2.5-2.5v-7c0-1.209479.85887984-2.21835578 2-2.44999094v-1.05000906c0-2.76142375 2.23857625-5 5-5 2.7614237 0 5 2.23857625 5 5v1.05000906c1.1411202.23163516 2 1.24051194 2 2.44999094v1.5h1.5c1.3807119 0 2.5 1.1192881 2.5 2.5v1c0 1.3807119-1.1192881 2.5-2.5 2.5zm-1.0353438 0h-4.4146471c-1.3807119 0-2.5-1.1192881-2.5-2.5v-1c0-1.3807119 1.1192881-2.5 2.5-2.5h4.5v-1.5c0-.789513-.6099625-1.4365617-1.3843494-1.4956079-.037121.0087902-.0758425.0134423-.1156506.0134423-.0459894 0-.0905286-.006209-.132825-.0178344h-8.867175c-.82842712 0-1.5.6715729-1.5 1.5v7c0 .8284271.67157288 1.5 1.5 1.5h9c.6531094 0 1.2087289-.4174038 1.4146471-1zm-9.9146471-10h8v-1c0-2.209139-1.790861-4-4-4s-4 1.790861-4 4zm14 7.5v-1c0-.8284271-.6715729-1.5-1.5-1.5h-7c-.8284271 0-1.5.6715729-1.5 1.5v1c0 .8284271.6715729 1.5 1.5 1.5h7c.8284271 0 1.5-.6715729 1.5-1.5zm-8.5-1.5h1c.2761424 0 .5.2238576.5.5v1c0 .2761424-.2238576.5-.5.5h-1c-.2761424 0-.5-.2238576-.5-.5v-1c0-.2761424.2238576-.5.5-.5zm3 0h1c.2761424 0 .5.2238576.5.5v1c0 .2761424-.2238576.5-.5.5h-1c-.2761424 0-.5-.2238576-.5-.5v-1c0-.2761424.2238576-.5.5-.5zm3 0h1c.2761424 0 .5.2238576.5.5v1c0 .2761424-.2238576.5-.5.5h-1c-.2761424 0-.5-.2238576-.5-.5v-1c0-.2761424.2238576-.5.5-.5z"/></svg>