<?xml version="1.0" encoding="UTF-8"?>
<!DOCTYPE svg PUBLIC "-//W3C//DTD SVG 1.1//EN" "http://www.w3.org/Graphics/SVG/1.1/DTD/svg11.dtd">
<svg xmlns="http://www.w3.org/2000/svg" version="1.1" width="96px" height="96px" style="shape-rendering:geometricPrecision; text-rendering:geometricPrecision; image-rendering:optimizeQuality; fill-rule:evenodd; clip-rule:evenodd" xmlns:xlink="http://www.w3.org/1999/xlink">
<g><path style="opacity:0.983" fill="#ece6f5" d="M 71.5,79.5 C 70.869,71.5477 66.869,66.2144 59.5,63.5C 58.4863,62.3263 57.153,61.6596 55.5,61.5C 55.5,60.1667 55.5,58.8333 55.5,57.5C 59.7849,52.9302 62.4516,47.5969 63.5,41.5C 63.9651,37.2076 63.1318,33.2076 61,29.5C 58.0533,26.9978 55.22,24.4978 52.5,22C 37.5113,20.8212 30.8446,27.6545 32.5,42.5C 31.4017,43.6009 31.235,44.9343 32,46.5C 34.0156,50.5423 36.5156,54.209 39.5,57.5C 39.5,58.8333 39.5,60.1667 39.5,61.5C 37.847,61.6596 36.5137,62.3263 35.5,63.5C 28.1242,66.2335 24.1242,71.5669 23.5,79.5C 12.3716,71.9105 7.03831,61.2438 7.5,47.5C 9.16667,22.5 22.5,9.16667 47.5,7.5C 72.5,9.16667 85.8333,22.5 87.5,47.5C 87.9617,61.2438 82.6284,71.9105 71.5,79.5 Z"/></g>
<g><path style="opacity:1" fill="#7b574a" d="M 63.5,41.5 C 62.2058,42.2899 61.0391,43.2899 60,44.5C 61.0319,38.2853 58.6986,33.9519 53,31.5C 47.5,33.3333 42,35.1667 36.5,37C 35.7256,39.405 35.2256,41.905 35,44.5C 34.2917,43.6195 33.4584,42.9528 32.5,42.5C 30.8446,27.6545 37.5113,20.8212 52.5,22C 55.22,24.4978 58.0533,26.9978 61,29.5C 63.1318,33.2076 63.9651,37.2076 63.5,41.5 Z"/></g>
<g><path style="opacity:1" fill="#fba746" d="M 63.5,41.5 C 62.4516,47.5969 59.7849,52.9302 55.5,57.5C 50.1667,60.1667 44.8333,60.1667 39.5,57.5C 36.5156,54.209 34.0156,50.5423 32,46.5C 31.235,44.9343 31.4017,43.6009 32.5,42.5C 33.4584,42.9528 34.2917,43.6195 35,44.5C 35.2256,41.905 35.7256,39.405 36.5,37C 42,35.1667 47.5,33.3333 53,31.5C 58.6986,33.9519 61.0319,38.2853 60,44.5C 61.0391,43.2899 62.2058,42.2899 63.5,41.5 Z"/></g>
<g><path style="opacity:1" fill="#804d1b" d="M 40.5,41.5 C 43.8606,42.2032 44.1939,43.5365 41.5,45.5C 39.3576,44.5629 39.0243,43.2296 40.5,41.5 Z"/></g>
<g><path style="opacity:1" fill="#804d1b" d="M 52.5,41.5 C 55.8606,42.2032 56.1939,43.5365 53.5,45.5C 51.3576,44.5629 51.0243,43.2296 52.5,41.5 Z"/></g>
<g><path style="opacity:1" fill="#ec8b3e" d="M 39.5,57.5 C 44.8333,60.1667 50.1667,60.1667 55.5,57.5C 55.5,58.8333 55.5,60.1667 55.5,61.5C 53.9097,68.962 49.5764,71.1286 42.5,68C 40.8288,66.1575 39.8288,63.9908 39.5,61.5C 39.5,60.1667 39.5,58.8333 39.5,57.5 Z"/></g>
<g><path style="opacity:1" fill="#3b2093" d="M 39.5,61.5 C 39.8288,63.9908 40.8288,66.1575 42.5,68C 49.5764,71.1286 53.9097,68.962 55.5,61.5C 57.153,61.6596 58.4863,62.3263 59.5,63.5C 56.3786,72.3757 50.3786,75.209 41.5,72C 38.4769,69.8225 36.4769,66.9892 35.5,63.5C 36.5137,62.3263 37.847,61.6596 39.5,61.5 Z"/></g>
<g><path style="opacity:1" fill="#6b3fb8" d="M 35.5,63.5 C 36.4769,66.9892 38.4769,69.8225 41.5,72C 50.3786,75.209 56.3786,72.3757 59.5,63.5C 66.869,66.2144 70.869,71.5477 71.5,79.5C 64.7581,85.5253 56.7581,88.1919 47.5,87.5C 38.2439,88.1865 30.2439,85.5198 23.5,79.5C 24.1242,71.5669 28.1242,66.2335 35.5,63.5 Z"/></g>
</svg>
